HIERARCHY
ROOT joint_Root
{
	OFFSET 0.0 0.0 0.0
	CHANNELS 6 Xposition Yposition Zposition Zrotation Xrotation Yrotation 
	JOINT Hips
	{
		OFFSET -0.726466 93.3139 -2.00062
		CHANNELS 6 Xposition Yposition Zposition Zrotation Xrotation Yrotation 
		JOINT Spine
		{
			OFFSET 15.7357 0.0 0.0
			CHANNELS 6 Xposition Yposition Zposition Zrotation Xrotation Yrotation 
			JOINT Chest
			{
				OFFSET 8.98455 -0.406207 0.0
				CHANNELS 6 Xposition Yposition Zposition Zrotation Xrotation Yrotation 
				JOINT Neck
				{
					OFFSET 16.3773 0.0 0.0
					CHANNELS 6 Xposition Yposition Zposition Zrotation Xrotation Yrotation 
					JOINT Head
					{
						OFFSET 6.45672 0.0 0.0
						CHANNELS 6 Xposition Yposition Zposition Zrotation Xrotation Yrotation 
						End Site
						{
							OFFSET 0.0 0.0 0.0
						}
					}
				}
				JOINT Shoulder_L
				{
					OFFSET 12.9942 -0.242716 4.98039
					CHANNELS 6 Xposition Yposition Zposition Zrotation Xrotation Yrotation 
					JOINT UpperArm_L
					{
						OFFSET 5.34809 0.0 0.0
						CHANNELS 6 Xposition Yposition Zposition Zrotation Xrotation Yrotation 
						JOINT LowerArm_L
						{
							OFFSET 24.3286 1.87007e-05 0.0
							CHANNELS 6 Xposition Yposition Zposition Zrotation Xrotation Yrotation 
							JOINT Hand_L
							{
								OFFSET 22.2916 0.0 0.0
								CHANNELS 6 Xposition Yposition Zposition Zrotation Xrotation Yrotation 
								End Site
								{
									OFFSET 0.0 0.0 0.0
								}
							}
						}
					}
				}
				JOINT Shoulder_R
				{
					OFFSET 12.9945 -0.242716 -4.98039
					CHANNELS 6 Xposition Yposition Zposition Zrotation Xrotation Yrotation 
					JOINT UpperArm_R
					{
						OFFSET -5.34813 0.0 0.0
						CHANNELS 6 Xposition Yposition Zposition Zrotation Xrotation Yrotation 
						JOINT LowerArm_R
						{
							OFFSET -24.3289 0.000322201 0.0
							CHANNELS 6 Xposition Yposition Zposition Zrotation Xrotation Yrotation 
							JOINT Hand_R
							{
								OFFSET -22.2915 -0.000108084 0.0
								CHANNELS 6 Xposition Yposition Zposition Zrotation Xrotation Yrotation 
								End Site
								{
									OFFSET 0.0 0.0 0.0
								}
							}
						}
					}
				}
			}
		}
		JOINT UpperLeg_L
		{
			OFFSET -2.19248 -6.46944 0.0
			CHANNELS 6 Xposition Yposition Zposition Zrotation Xrotation Yrotation 
			JOINT LowerLeg_L
			{
				OFFSET 39.0811 0.0 -1.23785e-05
				CHANNELS 6 Xposition Yposition Zposition Zrotation Xrotation Yrotation 
				JOINT Foot_L
				{
					OFFSET 40.9854 0.0 -1.26872e-05
					CHANNELS 6 Xposition Yposition Zposition Zrotation Xrotation Yrotation 
					JOINT Toes_L
					{
						OFFSET 11.7543 0.0 0.0
						CHANNELS 6 Xposition Yposition Zposition Zrotation Xrotation Yrotation 
						End Site
						{
							OFFSET 0.0 0.0 0.0
						}
					}
				}
			}
		}
		JOINT UpperLeg_R
		{
			OFFSET -2.19251 6.46944 0.0
			CHANNELS 6 Xposition Yposition Zposition Zrotation Xrotation Yrotation 
			JOINT LowerLeg_R
			{
				OFFSET -39.0811 -0.00228153 -0.0401928
				CHANNELS 6 Xposition Yposition Zposition Zrotation Xrotation Yrotation 
				JOINT Foot_R
				{
					OFFSET -40.9854 0.0 0.0
					CHANNELS 6 Xposition Yposition Zposition Zrotation Xrotation Yrotation 
					JOINT Toes_R
					{
						OFFSET -11.7543 0.0 0.0
						CHANNELS 6 Xposition Yposition Zposition Zrotation Xrotation Yrotation 
						End Site
						{
							OFFSET 0.0 0.0 0.0
						}
					}
				}
			}
		}
	}
}
MOTION
Frames:	6
Frame Time:	0.0333333
0.000000 0.000000 0.000000 0.000000 0.000000 -0.000000 -1.064160 92.865900 -0.148135 89.068900 -2.151060 2.437930 15.735700 0.000005 -0.000001 96.620700 87.699400 -96.722800 8.984550 -0.406207 -0.000000 -3.195150 0.540014 -0.189283 16.377300 -0.000001 -0.000001 5.639220 -2.445390 3.552600 6.456720 -0.000001 -0.000000 10.016600 -2.134400 -3.755000 12.994200 -0.242716 4.980390 -87.624900 -7.459970 -72.283100 5.348090 -0.000007 -0.000001 -81.132800 -29.588600 -89.969100 24.328600 0.000019 0.000005 14.582600 2.203240 -81.594000 22.291600 -0.000001 0.000005 15.413400 5.569560 -9.665920 12.994500 -0.242716 -4.980390 90.113700 -0.378853 -73.297700 -5.348130 -0.000001 -0.000004 -71.672800 -30.551300 -97.497500 -24.328900 0.000322 -0.000009 16.955300 3.994010 -77.132700 -22.291500 -0.000108 -0.000004 19.723200 5.399360 -2.916670 -2.192480 -6.469440 -0.000000 -176.196000 -8.049300 -1.397840 39.081100 -0.000007 -0.000012 -0.066126 0.212754 17.265700 40.985400 -0.000006 -0.000013 -0.628591 4.409550 -63.524000 11.754300 -0.000000 0.000003 -0.000002 -0.000029 -16.578600 -2.192510 6.469440 -0.000001 179.167000 11.545900 -179.242000 -39.081100 -0.002282 -0.040193 -0.058690 0.238396 14.582800 -40.985400 0.000008 0.000006 1.268030 7.150360 -63.182800 -11.754300 -0.000006 -0.000006 -0.005717 -0.068242 -19.350200
0.000000 0.000000 0.000000 0.000000 0.000000 -0.000000 -1.060800 92.866600 -0.150873 89.073900 -2.088290 2.459380 15.735700 0.000005 -0.000001 96.322900 87.685300 -96.434700 8.984550 -0.406207 -0.000000 -3.164430 0.520269 -0.209217 16.377300 -0.000001 -0.000001 5.636840 -2.473670 3.566600 6.456720 -0.000001 -0.000000 10.006900 -2.108230 -3.709480 12.994200 -0.242716 4.980390 -87.616500 -7.467900 -72.242100 5.348090 -0.000007 -0.000001 -80.872800 -29.645000 -89.798300 24.328600 0.000019 0.000005 14.550300 2.255100 -81.379500 22.291600 -0.000001 0.000005 15.169800 5.567400 -9.556190 12.994500 -0.242716 -4.980390 90.098700 -0.327693 -73.243500 -5.348130 -0.000001 -0.000004 -71.433700 -30.616200 -97.443800 -24.328900 0.000322 -0.000009 16.805100 4.036040 -76.883000 -22.291500 -0.000108 -0.000004 19.762300 5.401510 -2.986500 -2.192480 -6.469440 -0.000000 -176.199000 -8.018910 -1.399980 39.081100 -0.000007 -0.000012 -0.066519 0.213938 17.271800 40.985400 -0.000006 -0.000013 -0.623391 4.441960 -63.510000 11.754300 -0.000000 0.000003 -0.000002 -0.000027 -16.578600 -2.192510 6.469440 -0.000001 179.165000 11.540000 -179.211000 -39.081100 -0.002282 -0.040193 -0.057804 0.235145 14.573700 -40.985400 0.000008 0.000006 1.261840 7.087300 -63.182800 -11.754300 -0.000006 -0.000006 -0.005455 -0.065798 -19.250600
0.000000 0.000000 0.000000 0.000000 0.000000 -0.000000 -1.055630 92.861700 -0.154820 89.079700 -2.016910 2.483150 15.735700 0.000005 -0.000001 96.451300 87.660900 -96.570500 8.984550 -0.406207 -0.000000 -3.116930 0.536723 -0.223797 16.377300 -0.000001 -0.000001 5.648960 -2.520510 3.606350 6.456720 -0.000001 -0.000000 9.933000 -2.182130 -3.692400 12.994200 -0.242716 4.980390 -87.626700 -7.436110 -72.242700 5.348090 -0.000007 -0.000001 -80.627700 -29.656900 -89.670800 24.328600 0.000019 0.000005 14.513100 2.287250 -81.235500 22.291600 -0.000001 0.000005 14.984300 5.565520 -9.461040 12.994500 -0.242716 -4.980390 90.084500 -0.279268 -73.158900 -5.348130 -0.000001 -0.000004 -71.130900 -30.815400 -97.311600 -24.328900 0.000322 -0.000009 16.569500 4.006700 -76.785600 -22.291500 -0.000108 -0.000004 19.829600 5.402500 -3.018890 -2.192480 -6.469440 -0.000000 -176.196000 -8.013330 -1.397030 39.081100 -0.000007 -0.000012 -0.066939 0.214785 17.310000 40.985400 -0.000006 -0.000013 -0.608970 4.518840 -63.530600 11.754300 -0.000000 0.000003 -0.000002 -0.000036 -16.578900 -2.192510 6.469440 -0.000001 179.146000 11.606100 -179.216000 -39.081100 -0.002282 -0.040193 -0.059002 0.238672 14.636700 -40.985400 0.000008 0.000006 1.274260 7.085560 -63.217700 -11.754300 -0.000006 -0.000006 -0.005684 -0.067940 -19.337900
0.000000 0.000000 0.000000 0.000000 0.000000 -0.000000 -1.036540 92.873000 -0.174423 89.088700 -1.958120 2.477350 15.735700 0.000005 -0.000001 96.070900 87.650300 -96.199200 8.984550 -0.406207 -0.000000 -3.092450 0.508939 -0.242903 16.377300 -0.000001 -0.000001 5.641460 -2.531670 3.597640 6.456720 -0.000001 -0.000000 9.927110 -2.171050 -3.609410 12.994200 -0.242716 4.980390 -87.623800 -7.391280 -72.121800 5.348090 -0.000007 -0.000001 -80.338000 -29.599100 -89.509300 24.328600 0.000019 0.000005 14.392100 2.274910 -81.206800 22.291600 -0.000001 0.000005 14.891300 5.563440 -9.357140 12.994500 -0.242716 -4.980390 90.067300 -0.221341 -73.095500 -5.348130 -0.000001 -0.000004 -70.761600 -31.015700 -97.089200 -24.328900 0.000322 -0.000009 16.467100 3.979500 -76.788800 -22.291500 -0.000108 -0.000004 19.856100 5.402220 -3.009700 -2.192480 -6.469440 -0.000000 -176.219000 -8.081350 -1.392060 39.081100 -0.000007 -0.000012 -0.065435 0.210969 17.231900 40.985400 -0.000006 -0.000013 -0.571540 4.637020 -63.467100 11.754300 -0.000000 0.000003 -0.000001 -0.000018 -16.578200 -2.192510 6.469440 -0.000001 179.140000 11.673400 -179.207000 -39.081100 -0.002282 -0.040193 -0.056348 0.229242 14.592000 -40.985400 0.000008 0.000006 1.410650 7.072080 -63.206600 -11.754300 -0.000006 -0.000006 -0.005804 -0.069041 -19.382800
0.000000 0.000000 0.000000 0.000000 0.000000 -0.000000 -1.024650 92.869900 -0.203269 89.070900 -1.929970 2.445300 15.735700 0.000005 -0.000001 95.649800 87.641400 -95.770300 8.984550 -0.406207 -0.000000 -3.071350 0.475586 -0.228435 16.377300 -0.000001 -0.000001 5.631570 -2.525290 3.602610 6.456720 -0.000001 -0.000000 9.913140 -2.101130 -3.648560 12.994200 -0.242716 4.980390 -87.625900 -7.327890 -71.993100 5.348090 -0.000007 -0.000001 -80.034600 -29.598200 -89.081400 24.328600 0.000019 0.000005 14.379400 2.175390 -81.578000 22.291600 -0.000001 0.000005 14.614900 5.559630 -9.168720 12.994500 -0.242716 -4.980390 90.047800 -0.156063 -72.965700 -5.348130 -0.000001 -0.000004 -70.266900 -31.117200 -96.637900 -24.328900 0.000322 -0.000009 15.829200 3.742300 -77.037600 -22.291500 -0.000108 -0.000004 19.711700 5.401160 -2.975240 -2.192480 -6.469440 -0.000000 -176.215000 -8.049010 -1.486980 39.081100 -0.000007 -0.000012 -0.066360 0.212959 17.307300 40.985400 -0.000006 -0.000013 -0.560604 4.644640 -63.483000 11.754300 -0.000000 0.000003 -0.000002 -0.000024 -16.578400 -2.192510 6.469440 -0.000001 179.154000 11.675700 -179.262000 -39.081100 -0.002282 -0.040193 -0.057007 0.231683 14.597400 -40.985400 0.000008 0.000006 1.305700 7.049280 -63.174000 -11.754300 -0.000006 -0.000006 -0.005561 -0.066794 -19.291200
0.000000 0.000000 0.000000 0.000000 0.000000 -0.000000 -0.993724 92.876200 -0.239262 89.073400 -1.921220 2.447040 15.735700 0.000005 -0.000001 95.406700 87.606300 -95.533400 8.984550 -0.406207 -0.000000 -2.999430 0.462810 -0.241212 16.377300 -0.000001 -0.000001 5.564800 -2.531010 3.641220 6.456720 -0.000001 -0.000000 9.876580 -2.029490 -3.664700 12.994200 -0.242716 4.980390 -87.670600 -7.169220 -71.946400 5.348090 -0.000007 -0.000001 -79.476500 -29.670600 -88.316200 24.328600 0.000019 0.000005 13.891000 1.896940 -82.376500 22.291600 -0.000001 0.000005 14.326100 5.557000 -9.041040 12.994500 -0.242716 -4.980390 90.008400 -0.027244 -72.855400 -5.348130 -0.000001 -0.000004 -69.331200 -31.410700 -95.591200 -24.328900 0.000322 -0.000009 14.931600 3.323030 -77.738300 -22.291500 -0.000108 -0.000004 19.536300 5.399870 -2.933400 -2.192480 -6.469440 -0.000000 -176.242000 -8.019710 -1.503580 39.081100 -0.000007 -0.000012 -0.065815 0.211512 17.284200 40.985400 -0.000006 -0.000013 -0.555305 4.577370 -63.444300 11.754300 -0.000000 0.000003 -0.000003 -0.000040 -16.579100 -2.192510 6.469440 -0.000001 179.151000 11.629200 -179.286000 -39.081100 -0.002282 -0.040193 -0.056842 0.231227 14.586700 -40.985400 0.000008 0.000006 1.321000 6.999380 -63.141000 -11.754300 -0.000006 -0.000006 -0.005508 -0.066298 -19.271000
